<svg width="33" height="32" viewBox="0 0 33 32" fill="none" xmlns="http://www.w3.org/2000/svg">
<path d="M5.83337 16V19.3923C5.83337 23.7189 5.83337 25.8823 7.0148 27.3476C7.25348 27.6436 7.52312 27.9132 7.81915 28.1519C9.28445 29.3333 11.4478 29.3333 15.7744 29.3333C16.7152 29.3333 17.1855 29.3333 17.6163 29.1813C17.7059 29.1497 17.7936 29.1133 17.8794 29.0724C18.2915 28.8752 18.624 28.5427 19.2892 27.8775L25.6046 21.5621C26.3754 20.7913 26.7607 20.406 26.9638 19.9159C27.1667 19.4259 27.1667 18.8808 27.1667 17.7908V13.3333C27.1667 8.305 27.1667 5.79086 25.6046 4.22875C24.0426 2.66666 21.5283 2.66666 16.5 2.66666M17.8334 28.6667V28C17.8334 24.2288 17.8334 22.3432 19.005 21.1716C20.1766 20 22.0622 20 25.8334 20H26.5" stroke="#283577" stroke-width="2" stroke-linecap="round" stroke-linejoin="round"/>
<path d="M13.8334 6.66666C13.0469 5.85754 10.9537 2.66666 9.83337 2.66666C8.71301 2.66666 6.61983 5.85754 5.83337 6.66666M9.83337 3.99999V13.3333" stroke="#283577" stroke-width="2" stroke-linecap="round" stroke-linejoin="round"/>
</svg>